<svg id="Capa_1" enable-background="new 0 0 512 512" style="fill:pink;" height="50" viewBox="0 0 512 512" width="50" xmlns="http://www.w3.org/2000/svg"><g><path d="m256 0c-136.372 0-247.32 110.948-247.32 247.321 0 39.312 8.997 76.926 26.74 111.798 16.22 31.877 39.609 60.311 67.786 82.524-1.504 7.137-2.302 14.532-2.302 22.113v38.224c0 5.533 4.486 10.02 10.02 10.02h290.154c5.533 0 10.02-4.486 10.02-10.02v-38.224c0-7.58-.797-14.976-2.302-22.112 28.178-22.213 51.567-50.648 67.786-82.525 17.744-34.872 26.74-72.486 26.74-111.798-.002-136.373-110.949-247.321-247.322-247.321zm135.057 491.961h-42.784v-35.929c0-5.533-4.486-10.02-10.02-10.02s-10.02 4.486-10.02 10.02v35.929h-144.467v-35.929c0-5.533-4.486-10.02-10.02-10.02-5.533 0-10.02 4.486-10.02 10.02v35.929h-42.784v-28.204c0-47.676 38.514-86.464 85.853-86.464h.527c3.349 23.868 23.896 42.296 48.677 42.296s45.328-18.429 48.677-42.296h.526c47.34 0 85.853 38.788 85.853 86.464v28.204zm-126.718-264.959c13.639-8.168 23.914-16.711 30.878-23.34 10.216 20.484 32.771 55.625 68.673 59.743-7.799 52.548-53.207 92.995-107.889 92.995-58.034 0-105.622-45.557-108.892-102.786 53.661 3.709 93.173-12.204 117.23-26.612zm-116.554 6.579c6.778-53.683 52.723-95.337 108.216-95.337 58.81 0 106.89 46.785 108.997 105.09-36.819-5.437-57.096-60.423-57.302-60.997-1.237-3.452-4.269-5.941-7.892-6.508-3.617-.573-7.274.9-9.507 3.811-.122.159-12.555 16.159-37.045 30.642-31.023 18.344-66.48 26.166-105.467 23.299zm136.519 143.712c-3.094 12.754-14.606 22.257-28.304 22.257-13.697 0-25.209-9.503-28.303-22.257zm174.417-27.262c-13.775 27.073-33.176 51.451-56.48 71.113-4.452-10.215-10.451-19.596-17.7-27.844 43.169-37.383 67.862-91.269 67.862-148.469 0-44.666-14.611-86.753-42.251-121.711-3.431-4.341-9.732-5.077-14.073-1.645s-5.077 9.733-1.645 14.073c24.814 31.384 37.931 69.173 37.931 109.283 0 52.044-22.764 101.035-62.49 134.651-13.813-10.747-30.326-18.144-48.329-20.96 38.018-22.495 63.572-63.916 63.572-111.2 0-71.196-57.922-129.117-129.116-129.117-71.196 0-129.117 57.922-129.117 129.117 0 47.284 25.554 88.706 63.573 111.2-18.002 2.817-34.516 10.213-48.329 20.961-39.726-33.616-62.49-82.607-62.49-134.651 0-97.247 79.116-176.363 176.364-176.363 24.579 0 48.358 4.956 70.678 14.729 5.064 2.216 10.977-.09 13.197-5.159s-.09-10.978-5.159-13.198c-24.872-10.89-51.356-16.411-78.719-16.411-108.297 0-196.403 88.106-196.403 196.402 0 57.201 24.693 111.087 67.862 148.469-7.249 8.248-13.249 17.629-17.7 27.844-23.303-19.663-42.704-44.041-56.48-71.114-16.297-32.03-24.561-66.587-24.561-102.71.001-125.324 101.959-227.282 227.282-227.282s227.281 101.958 227.281 227.282c0 36.123-8.263 70.68-24.56 102.71z"/><path d="m375.579 89.742c-4.492-3.212-10.737-2.175-13.95 2.317-3.212 4.492-2.175 10.738 2.317 13.95s10.738 2.175 13.95-2.317 2.175-10.737-2.317-13.95z"/><circle cx="215.694" cy="269.172" r="10.02"/><circle cx="295.145" cy="269.172" r="10.02"/><path d="m223.718 310.633c-3.122 4.569-1.948 10.803 2.621 13.925 8.653 5.911 19.179 9.201 29.641 9.261.102 0 .202.001.303.001 14.257 0 24.877-5.793 29.955-9.262 4.569-3.121 5.742-9.356 2.62-13.926-3.121-4.568-9.357-5.742-13.926-2.62-3.163 2.161-9.775 5.769-18.649 5.769-.063 0-.125 0-.188-.001-8.784-.051-15.333-3.636-18.454-5.768-4.567-3.121-10.802-1.948-13.923 2.621z"/></g></svg>