<svg stroke="pink" xmlns="http://www.w3.org/2000/svg"  viewBox="0 0 50 50" width="50px" height="50px"><path fill="none" stroke="pink" stroke-width="2" d="M12.799,13.924c-4.57,1.864-7.79,6.345-7.79,11.576c0,6.904,5.608,12.5,12.526,12.5c1.239,0,2.437-0.18,3.568-0.515C18.259,34.8,16.371,31.118,16,27c1.073,0,6.021,0,7,0v4c0,0-1.056,0-1.786,0c0.884,1.798,2.189,3.354,3.786,4.538c1.597-1.186,2.901-2.74,3.785-4.538c-0.73,0-1.732,0-1.732,0c0-1,0-4,0-4c0.979,0,5.873,0,6.946,0c-0.371,4.118-2.259,7.8-5.102,10.486C30.028,37.82,31.226,38,32.466,38c6.918,0,12.526-5.596,12.526-12.5S39.384,13,32.466,13c-1.24,0-2.437,0.18-3.568,0.515c0.883,0.834,1.674,1.764,2.356,2.774c1.151,1.704,1.992,3.635,2.442,5.71l-4.132,0.005c-0.767-2.632-2.377-4.906-4.52-6.51c-0.014-0.011-0.029-0.021-0.043-0.032c-2.164,1.606-3.792,3.892-4.564,6.542l-4.132-0.005c0.449-2.076,1.29-4.006,2.442-5.71c0.682-1.01,1.473-1.94,2.356-2.774C19.971,13.18,18.774,13,17.534,13C15.858,13,14.26,13.328,12.799,13.924z"/><path fill="none" stroke="pink" stroke-width="2" d="M25.036,10.756C27.27,9.632,29.794,9,32.466,9C41.597,9,49,16.387,49,25.5S41.597,42,32.466,42c-2.686,0-5.222-0.639-7.464-1.773C22.759,41.36,20.222,42,17.534,42C8.403,42,1,34.613,1,25.5S8.403,9,17.534,9c2.686,0,5.223,0.639,7.466,1.774C25.012,10.768,25.024,10.762,25.036,10.756z"/></svg>