<svg fill="red" xmlns="http://www.w3.org/2000/svg"  viewBox="0 0 50 50" width="50px" height="50px"><path d="M33.816,16.837V32h-3.642V16.837H33.816 M5.642,16.837v4.941c0,0,0.106-0.043,0.319-0.107l0.916-0.107h2.364c0.055-0.002,0.109-0.002,0.163-0.002c0.704,0,1.352,0.129,1.946,0.386c0.618,0.256,1.108,0.66,1.491,1.214c0.362,0.575,0.554,1.32,0.554,2.236V32H9.752v-6.134c-0.021-0.256-0.106-0.511-0.298-0.681c-0.192-0.17-0.426-0.277-0.681-0.277h-2.13c-0.298,0-0.511,0.106-0.703,0.277c-0.192,0.17-0.277,0.426-0.298,0.681V32H2V16.837H5.642 M48,21.565l0,6.431c0,0.767-0.149,1.47-0.447,2.066c-0.277,0.597-0.703,1.065-1.235,1.406c-0.554,0.319-1.213,0.49-1.98,0.49V32h-3.557c-0.83,0-1.554-0.171-2.193-0.469c-0.618-0.298-1.086-0.745-1.448-1.342c-0.362-0.596-0.511-1.341-0.533-2.193v-6.431h3.663v6.112c0,0.277,0.106,0.511,0.277,0.703c0.17,0.17,0.405,0.255,0.703,0.276h2.13c0.276-0.021,0.51-0.106,0.681-0.276c0.17-0.192,0.277-0.427,0.277-0.703v-6.112H48 M27.406,21.565v6.431c-0.021,0.767-0.171,1.47-0.447,2.066c-0.298,0.597-0.724,1.065-1.257,1.406c-0.533,0.319-1.192,0.49-1.959,0.49V32h-3.578c-0.852,0-1.554-0.171-2.193-0.469c-0.618-0.298-1.107-0.745-1.448-1.342c-0.341-0.596-0.511-1.341-0.511-2.193v-6.431h3.642v6.112c0.021,0.277,0.107,0.511,0.298,0.703c0.17,0.17,0.405,0.255,0.681,0.276h2.13c0.277-0.021,0.511-0.106,0.703-0.276c0.17-0.192,0.255-0.427,0.277-0.703v-6.112H27.406 M33.816,14.837h-3.642c-1.105,0-2,0.895-2,2v2.881c-0.237-0.099-0.496-0.153-0.769-0.153h-3.663c-1.105,0-2,0.895-2,2v5.091h-0.089v-5.091c0-1.105-0.895-2-2-2h-3.642c-1.061,0-1.929,0.826-1.996,1.87c-0.53-0.583-1.168-1.03-1.903-1.335c-0.813-0.352-1.735-0.538-2.71-0.538c-0.062,0-0.125,0.001-0.188,0.002H7.642v-2.728c0-1.105-0.895-2-2-2H2c-1.105,0-2,0.895-2,2V32c0,1.105,0.895,2,2,2h3.642c1.105,0,2-0.895,2-2v-5.092h0.11V32c0,1.105,0.895,2,2,2h3.642c1.092,0,1.98-0.876,2-1.963c0.467,0.538,1.04,0.971,1.71,1.295C18.073,33.785,19.067,34,20.165,34h3.578c0.167,0,0.329-0.02,0.484-0.059c0.931-0.065,1.771-0.319,2.504-0.758c0.017-0.01,0.034-0.021,0.051-0.031c0.542-0.348,1.008-0.775,1.393-1.277V32c0,1.105,0.895,2,2,2h3.642c1.105,0,2-0.895,2-2v-0.21c0.515,0.663,1.152,1.181,1.902,1.542C38.676,33.779,39.698,34,40.781,34h3.557c0.167,0,0.33-0.021,0.485-0.059c0.915-0.064,1.752-0.313,2.495-0.741c0.027-0.016,0.054-0.032,0.08-0.049c0.868-0.556,1.526-1.304,1.958-2.222C49.783,30.061,50,29.075,50,27.995l0-6.431c0-1.105-0.895-2-2-2h-3.663c-1.105,0-2,0.895-2,2v5.091H42.27v-5.091c0-1.105-0.895-2-2-2h-3.663c-0.281,0-0.548,0.058-0.791,0.162v-2.89C35.816,15.732,34.921,14.837,33.816,14.837L33.816,14.837z"/></svg>