<svg fill="red" xmlns="http://www.w3.org/2000/svg"  viewBox="0 0 50 50" width="50px" height="50px"><path d="M47.984,41.434c-0.065-0.086-0.549-0.355-0.742-0.355c-0.193,0-0.817,0.409-0.936,0.495c-0.119,0.086-0.42,0.226-0.516,0.237c-0.097,0.011-0.958,0.054-1.151,0.054c-0.193,0-0.484-0.054-0.613-0.043c-0.129,0.011-0.387,0.011-0.441,0.011c-0.054,0-0.075-0.086,0-0.172c0.075-0.086,0.204-0.323,0.334-0.495c0.129-0.172,0.344-0.312,0.473-0.377c0.129-0.065,0.334-0.151,0.355-0.237c0.022-0.086-0.323-0.086-0.527-0.021c-0.204,0.064-0.495,0.355-0.57,0.441c-0.075,0.086-0.14,0.097-0.204,0.086c-0.064-0.011-0.194,0.108-0.247,0.15c-0.054,0.043-0.194,0.14-0.323,0.14c-0.129,0-0.291-0.14-0.355-0.194c-0.064-0.054-0.194-0.097-0.28-0.086c-0.086,0.011-0.258-0.043-0.377-0.14c-0.118-0.097-0.15-0.194-0.118-0.247c0.032-0.054,0.097-0.194,0.118-0.258c0.022-0.064-0.064-0.097-0.14-0.14c-0.075-0.043-0.742-0.452-1.248-0.936c-0.441-0.387-1.237-0.958-1.603-1.259c-0.283-0.233-1.818-1.42-2.765-2.022c-0.947-0.602-1.797-1.205-2.141-1.259c-0.344-0.054-0.43-0.086-0.516-0.193c-0.086-0.108-1.431-1.356-2.195-1.775c-0.764-0.419-2.302-1.151-2.378-1.215c0.14-0.248,0.172-0.527,0.108-0.775c-0.064-0.248-0.581-0.624-0.785-0.764c-0.205-0.14-0.344-0.194-0.344-0.194s-0.334-0.742-0.365-0.85c0.097-0.398,0.355-1.668,0.301-3.357c-0.054-1.689-0.183-1.936-0.366-2.291c-0.183-0.355-0.452-0.71-0.645-1.495c-0.194-0.785-0.248-1.495-0.151-1.807c0.097-0.312,0.355-0.861,0.527-1.495c0.172-0.635,0.064-1.108,0.086-1.323c0.021-0.215,0.183-0.43,0.215-0.99c0.033-0.559,0.237-0.591,0.387-1.399c0.15-0.807,0.226-1.291,0.226-1.291s0.269-0.043,0.323-0.28c0.054-0.237,0.064-0.43,0.129-0.807s0.086-0.807,0.097-0.893c0.011-0.086-0.075-0.226-0.075-0.226s0.108-1.538,0.139-1.915c0.033-0.377,0.151-0.656,0.151-0.807c0-0.15,0.011-0.269-0.162-0.538c0.035-0.084,0.073-0.14,0.105-0.176c0.029,0.001,0.056,0.004,0.085,0.004c1.368,0,2.478-1.109,2.478-2.478c0-1.369-1.11-2.478-2.478-2.478c-1.368,0-2.478,1.109-2.478,2.478c0,0.413,0.102,0.802,0.281,1.144c0.037,0.14,0.087,0.315,0.124,0.376c0.065,0.108,0.151,0.204,0.183,0.323c0.032,0.118,0.194,0.398,0.247,0.495c0.054,0.097,0.14,0.323,0.14,0.409c0,0.086,0.075,0.247,0.118,0.355c0.043,0.108,0.033,0.333-0.021,0.592c-0.054,0.258-0.323,1.549-0.409,1.818c-0.172,0.108-0.226,0.237-0.247,0.355c-0.022,0.118-0.151,0.667-0.237,0.871c-0.086,0.204-0.118,0.57-0.129,0.678c-0.011,0.108-0.022,0.355-0.097,0.409c-0.086,0.129-0.161,0.344-0.237,0.463c-0.075,0.118-0.129,0.527-0.108,0.699c0.021,0.172-0.01,0.538-0.097,0.645c-0.118,0.258-0.14,0.559-0.204,0.71c-0.065,0.15-0.28,0.936-0.312,1.097c-0.033,0.162-0.344,0.409-0.484,0.549c-0.14,0.14-0.398,0.527-0.462,0.635c-0.022-0.226-0.065-0.226-0.108-0.301c-0.043-0.075-0.178-0.11-0.21-0.142c-0.032-0.032,0.051-0.128,0.061-0.235c0.011-0.108-0.002-0.225-0.239-0.3c-0.237-0.075-0.319-0.089-0.405-0.175c-0.086-0.086-0.327-0.159-0.409-0.271c-0.226-0.258-0.594-0.592-1.314-0.613c0,0-0.518-0.009-0.926,0.264c-0.378,0.252-1.054,0.742-1.194,1.754c-0.14,1.011,0.774,1.657,0.85,1.721c0.075,0.065,0.291,0.194,0.14,0.387c-0.075,0.065-0.097,0.183-0.107,0.247c-0.011,0.064-0.14,0.237-0.258,0.344c-0.118,0.108-0.376,0.377-0.376,0.377s-0.613,0.032-0.99,0.559c-0.162,0.194-0.237,0.463-0.344,0.624c-0.108,0.162-0.484,0.839-0.592,1.044c-0.107,0.204-0.183,0.484-0.495,0.764c-0.108,0.183-0.355,0.366-0.57,1.194c0,0-0.85,1.043-1.151,1.538c-0.301,0.495-0.774,1.355-0.807,1.474c-0.032,0.118-0.269,0.538-0.334,0.699c-0.064,0.162-0.086,0.312-0.161,0.398c-0.075,0.086-0.344,0.473-0.581,0.678c-0.237,0.205-0.312,0.323-0.376,0.42c-0.064,0.097-0.162,0.237-0.56,0.43c-0.398,0.194-0.613,0.387-1.205,0.452c-0.592,0.065-0.914,0.011-0.957,0.226c-0.043,0.216,0.99,0.258,1.334,0.205c0.452-0.054,0.721-0.291,0.774-0.237c0.054,0.054-0.129,0.355-0.516,0.473c-0.387,0.118-0.323,0.237-0.323,0.301c0,0.064,0.226,0.14,0.581,0.043c0.355-0.097,0.99-0.401,1.043-0.336c0.054,0.064-0.14,0.326-0.204,0.433c-0.065,0.108,0.032,0.226,0.129,0.237c0.097,0.011,0.344-0.021,0.538-0.387c0.194-0.366,0.462-0.538,0.538-0.538c0.075,0,0.409,0.366,0.635,0.452c0.226,0.086,0.721,0.086,0.775-0.161c0.054-0.247-0.301-0.258-0.387-0.258c-0.086,0-0.29-0.194-0.301-0.301c-0.011-0.108,0.054-0.452,0.022-0.602c-0.032-0.151,0.075-0.688,0.215-1.033c0.14-0.344,0.613-1.162,0.947-1.366c0.334-0.204,1.474-1.033,1.829-1.775c0.355-0.742,0.495-1.119,0.613-1.173c0.118-0.054,0.312-0.064,0.473-0.29c0.161-0.226,0.215-0.398,0.344-0.398c0.129,0,0.118-0.054,0.484,0.484c0.366,0.538,0.516,0.635,0.549,0.71c0.032,0.075-0.07,0.223,0.043,0.441c0.151,0.291,0.366,0.355,0.366,0.506c0,0.15,0.043,0.43,0.118,0.624c0.075,0.194,0.222,0.503,0.14,0.635c-0.108,0.172-0.366,0.484-0.42,0.592c-0.323,0.043-0.785,0.183-0.861,0.861c-0.071,0.637,0.022,1.248-0.011,1.388c-0.032,0.14-0.452,0.559-0.613,0.624c-0.161,0.065-0.538,0.118-0.667,0.312c-0.129,0.194-0.161,0.355-0.409,0.495c-0.239,0.135-1.805,1.48-2.864,3.044c-0.036,0.054-0.132,0.092-0.251,0.132c-0.462,0.079-0.64,0.223-0.726,0.266c-0.073,0.037-0.272,0.23-0.469,0.453c-0.073,0.113-0.185,0.139-0.218,0.179c-0.409,0.151-1.884,0.906-2.766,1.519c-0.882,0.613-2.517,2.022-3.098,2.743c-0.377,0.452-0.42,0.441-0.517,0.484c-0.097,0.043-0.054,0.258-0.022,0.366c0,0-0.172,0.237-0.28,0.258c-0.108,0.021-0.204-0.194-0.344-0.205c-0.14-0.011-0.29,0.28-0.333,0.355c-0.043,0.075-0.108,0.215-0.204,0.236c-0.097,0.022-0.269-0.108-0.29-0.376c-0.022-0.269-0.194-0.527-0.248-0.549c-0.129,0-0.204,0.204-0.204,0.28c0,0.075,0.075,0.28,0.14,0.366c0.064,0.086,0.021,0.204,0.021,0.29c0,0.086,0.108,0.172,0.118,0.204c0.011,0.033,0.054,0.269-0.032,0.248c-0.086-0.022-0.269-0.011-0.398,0.075c-0.129,0.086-0.194,0.194-0.194,0.269c0,0.075,0.054,0.237-0.204,0.29c-0.312,0.108-0.56,0.151-0.721,0.205c-0.161,0.054-0.538,0.269-0.688,0.29c-0.151,0.022-0.248,0.011-0.376,0.022c-0.129,0.011-0.248,0.075-0.376,0.075c-0.129,0-0.506,0.204-0.71,0.312c-0.205,0.108-0.441,0.463-0.29,0.786c0.15,0.323,0.581,0.742,0.721,0.893c0.14,0.151,0.344,0.28,0.796,0.334c0.452,0.054,0.71-0.108,0.936-0.247c0.226-0.14,0.721-0.215,0.914-0.172c0.194,0.043,0.592,0.183,0.915-0.054c0.409-0.28,0.28-0.463,0.398-0.538c0.108,0,0.151-0.054,0.248-0.215c0.097-0.162,0.215-0.301,0.387-0.334c0.172-0.032,0.334-0.236,0.441-0.462c0.107-0.226,0.323-0.452,0.43-0.495c0.108-0.043,0.172-0.14,0.204-0.226c0.032-0.086,0.237-0.162,0.355-0.258c0.118-0.097,0.215-0.151,0.269-0.108c0.054,0.043,0.15-0.043,0.269-0.129c0.269-0.129,0.398-0.355,0.484-0.301c0.086,0.054,0.387,0.129,0.505,0.022c0.118-0.108,1.689-1.377,2.249-1.797c0.376-0.258,0.656-0.355,1.399-0.785c0.597-0.346,1.517-0.958,1.721-1.097c0.205-0.14,1.141-0.863,1.259-0.947c0.258-0.183,0.524-0.211,1.463-0.69c0.7-0.357,2.166-1.096,3.431-1.903c0.646-0.387,1.743-0.947,1.883-0.957c0.14-0.011,0.527,0.279,0.936,0.43c0.499,0.185,0.828,0.226,1.538,0.463c0.71,0.237,2.625,1.043,3.087,1.226c0.463,0.183,1.097,0.42,1.904,0.463c0.452,0.086,0.667,0.15,0.817,0.183c0.151,0.032,0.269,0.021,0.419,0.086c0.151,0.065,0.592,0.355,0.861,0.484c0.269,0.129,1.226,0.764,1.474,0.947c0.247,0.183,1.399,1.065,1.657,1.237c0.258,0.172,0.516,0.377,0.71,0.398c0.193,0.021,0.43,0.151,0.688,0.355c0.258,0.205,0.86,0.624,1.033,0.753c0.172,0.129,0.409,0.355,0.742,0.377c0.334,0.022,0.495,0.097,0.71,0.29c0.215,0.194,0.538,0.624,0.688,0.71c0.151,0.086,0.323,0.226,0.387,0.355c0.065,0.129,0.463,0.624,0.614,0.732c0.151,0.108,0.215,0.204,0.269,0.377c0.054,0.172,0.279,0.624,0.398,0.807c0.118,0.183,0.172,0.366,0.516,0.129c0.441-0.29,0.796-0.71,1.356-1.076c0.56-0.366,0.882-0.57,1.313-0.861c0.431-0.29,1.474-1.323,1.775-1.646C47.919,41.66,48.048,41.521,47.984,41.434L47.984,41.434z"/></svg>