<svg fill="red" xmlns="http://www.w3.org/2000/svg"  viewBox="0 0 32 32" width="64px" height="64px"><path d="M30,12h-2.212c-0.654-2.307-2.771-4-5.288-4c-3.038,0-5.5,2.462-5.5,5.5V15v1v6c2.209,0,4-1.791,4-4h2v-4h-2v-0.5 c0-0.828,0.672-1.5,1.5-1.5s1.5,0.672,1.5,1.5V16v1c0,2.761,2.239,5,5,5h1v-4c-1.105,0-2-0.895-2-2h2V12z"/><path d="M12,17.5c0,0.275-0.225,0.5-0.5,0.5S11,17.775,11,17.5V12H7v7c0,1.65,1.35,3,3,3c0.17,0,0.5,0,0.5,0 c0.709,0,1.366-0.214,1.917-0.576c-0.131,0.197-0.279,0.381-0.447,0.546C11.34,22.61,10.46,23,9.5,23c-0.54,0-1.05-0.12-1.5-0.35 v2.93C8.61,25.85,9.29,26,10,26h1c2.75,0,5-2.25,5-5v-9h-4V17.5z"/><path d="M6,16V9.5V8H2v11c0,1.657,1.343,3,3,3h2.062C6.409,21.363,6,20.478,6,19.5V16z"/></svg>