<svg fill="red" xmlns="http://www.w3.org/2000/svg"  viewBox="0 0 50 50" width="50px" height="50px"><path fill="none" fill-rule="evenodd" stroke="red" stroke-linecap="round" stroke-linejoin="round" stroke-miterlimit="10" stroke-width="2" d="M10 3H40V47H10z" clip-rule="evenodd"/><path fill-rule="evenodd" d="M14.917,13.383c2.636-1.068,6.985-1.206,8.874-1.135L25,13.8l1.21-1.552c1.889-0.071,6.238,0.067,8.874,1.135c-0.364,0.691-1.947,1.674-2.817,1.893c-0.05-1.358-1.97-1.642-3.812-1.642L25,32.165l-3.455-18.531c-1.844,0-3.764,0.283-3.813,1.642C16.863,15.057,15.28,14.074,14.917,13.383L14.917,13.383z" clip-rule="evenodd"/><path fill-rule="evenodd" d="M13.694,11.541l0.675,0.99c2.559-0.899,5.596-1.33,8.801-1.427c1.213-0.037,2.448-0.037,3.66,0c3.205,0.097,6.242,0.528,8.801,1.427l0.675-0.99c-3.022-1.024-6.233-1.365-9.439-1.448c-1.242-0.032-2.493-0.032-3.733,0C19.926,10.176,16.717,10.517,13.694,11.541L13.694,11.541z" clip-rule="evenodd"/><g><path fill-rule="evenodd" d="M33.357 38.321L36.602 38.325 36.602 40.257 36.026 40.257 36.026 38.967 33.932 38.967 33.932 40.257 33.357 40.257 33.357 38.321 33.357 38.321zM24.194 37.704L24.194 37.704h2.057c.308-.094.537-.344.6-.626h-3.233v1.886h2.674v.662h-2.07c-.304.124-.53.339-.593.619l-.011.024h3.249v-1.932h-2.673V37.704L24.194 37.704zM31.162 40.245L31.162 40.245c.288-.131.445-.361.505-.626h-2.571l.004-2.543-.576.002v3.16L31.162 40.245 31.162 40.245zM33.859 37.712L33.859 37.712h2.225c.313-.125.533-.347.596-.629h-3.435C33.306 37.365 33.546 37.587 33.859 37.712L33.859 37.712zM19.113 37.725L19.113 37.725h2.229c.313-.125.538-.358.603-.64h-3.436C18.573 37.366 18.801 37.6 19.113 37.725L19.113 37.725zM19.113 40.265L19.113 40.265h2.229c.313-.124.538-.36.603-.641h-3.436C18.573 39.905 18.801 40.141 19.113 40.265L19.113 40.265zM13.32 37.078L13.32 37.078c.067.281.294.514.604.637h.936l.048.022v2.532h.585v-2.532l.053-.022h.939c.307-.123.533-.356.601-.637v-.004H13.32V37.078L13.32 37.078zM19.113 38.966h2.229c.313-.122.538-.36.603-.638h-3.436C18.573 38.606 18.801 38.844 19.113 38.966L19.113 38.966z" clip-rule="evenodd"/></g></svg>